<svg width="408" height="92" viewBox="0 0 408 92" fill="none" xmlns="http://www.w3.org/2000/svg">
<rect width="408" height="92" rx="32" fill="#14AE5C"/>
<path d="M118.318 43.2216H115.659C115.557 42.6534 115.366 42.1534 115.088 41.7216C114.81 41.2898 114.469 40.9233 114.065 40.6222C113.662 40.321 113.21 40.0937 112.71 39.9403C112.216 39.7869 111.69 39.7102 111.133 39.7102C110.128 39.7102 109.227 39.9631 108.432 40.4688C107.642 40.9744 107.017 41.7159 106.557 42.6932C106.102 43.6705 105.875 44.8636 105.875 46.2727C105.875 47.6932 106.102 48.892 106.557 49.8693C107.017 50.8466 107.645 51.5852 108.44 52.0852C109.236 52.5852 110.131 52.8352 111.125 52.8352C111.676 52.8352 112.199 52.7614 112.693 52.6136C113.193 52.4602 113.645 52.2358 114.048 51.9403C114.452 51.6449 114.793 51.2841 115.071 50.858C115.355 50.4261 115.551 49.9318 115.659 49.375L118.318 49.3835C118.176 50.2415 117.901 51.0312 117.491 51.7528C117.088 52.4688 116.568 53.0881 115.932 53.6108C115.301 54.1278 114.579 54.5284 113.767 54.8125C112.954 55.0966 112.068 55.2386 111.108 55.2386C109.597 55.2386 108.25 54.8807 107.068 54.1648C105.886 53.4432 104.954 52.4119 104.273 51.071C103.597 49.7301 103.258 48.1307 103.258 46.2727C103.258 44.4091 103.599 42.8097 104.281 41.4744C104.963 40.1335 105.895 39.1051 107.077 38.3892C108.258 37.6676 109.602 37.3068 111.108 37.3068C112.034 37.3068 112.898 37.4403 113.699 37.7074C114.506 37.9687 115.23 38.3551 115.872 38.8665C116.514 39.3722 117.045 39.9915 117.466 40.7244C117.886 41.4517 118.17 42.2841 118.318 43.2216ZM123.357 37.5455V55H120.809V37.5455H123.357ZM126.329 55V41.9091H128.878V55H126.329ZM127.616 39.8892C127.173 39.8892 126.792 39.7415 126.474 39.446C126.162 39.1449 126.006 38.7869 126.006 38.3722C126.006 37.9517 126.162 37.5937 126.474 37.2983C126.792 36.9972 127.173 36.8466 127.616 36.8466C128.06 36.8466 128.437 36.9972 128.75 37.2983C129.068 37.5937 129.227 37.9517 129.227 38.3722C129.227 38.7869 129.068 39.1449 128.75 39.446C128.437 39.7415 128.06 39.8892 127.616 39.8892ZM137.364 55.2642C136.097 55.2642 135.006 54.9773 134.091 54.4034C133.182 53.8239 132.483 53.0256 131.995 52.0085C131.506 50.9915 131.262 49.8267 131.262 48.5142C131.262 47.1847 131.512 46.0114 132.012 44.9943C132.512 43.9716 133.216 43.1733 134.126 42.5994C135.035 42.0256 136.106 41.7386 137.339 41.7386C138.333 41.7386 139.219 41.9233 139.998 42.2926C140.776 42.6562 141.404 43.1676 141.881 43.8267C142.364 44.4858 142.651 45.2557 142.742 46.1364H140.262C140.126 45.5227 139.813 44.9943 139.324 44.5511C138.841 44.108 138.194 43.8864 137.381 43.8864C136.671 43.8864 136.049 44.0739 135.515 44.4489C134.986 44.8182 134.574 45.3466 134.279 46.0341C133.983 46.7159 133.836 47.5227 133.836 48.4545C133.836 49.4091 133.981 50.233 134.27 50.9261C134.56 51.6193 134.969 52.1562 135.498 52.5369C136.032 52.9176 136.66 53.108 137.381 53.108C137.864 53.108 138.302 53.0199 138.694 52.8438C139.091 52.6619 139.424 52.4034 139.691 52.0682C139.964 51.733 140.154 51.3295 140.262 50.858H142.742C142.651 51.7045 142.376 52.4602 141.915 53.125C141.455 53.7898 140.839 54.3125 140.066 54.6932C139.299 55.0739 138.398 55.2642 137.364 55.2642ZM147.355 50.5597L147.338 47.4489H147.781L152.997 41.9091H156.048L150.099 48.2159H149.699L147.355 50.5597ZM145.011 55V37.5455H147.559V55H145.011ZM153.278 55L148.591 48.7784L150.346 46.9972L156.406 55H153.278ZM169.921 41.9091V43.9545H162.77V41.9091H169.921ZM164.688 38.7727H167.236V51.1562C167.236 51.6506 167.31 52.0227 167.458 52.2727C167.606 52.517 167.796 52.6847 168.029 52.7756C168.267 52.8608 168.526 52.9034 168.804 52.9034C169.009 52.9034 169.188 52.8892 169.341 52.8608C169.495 52.8324 169.614 52.8097 169.699 52.7926L170.16 54.8977C170.012 54.9545 169.802 55.0114 169.529 55.0682C169.256 55.1307 168.915 55.1648 168.506 55.1705C167.836 55.1818 167.211 55.0625 166.631 54.8125C166.052 54.5625 165.583 54.1761 165.225 53.6534C164.867 53.1307 164.688 52.4744 164.688 51.6847V38.7727ZM177.657 55.2642C176.43 55.2642 175.359 54.983 174.444 54.4205C173.53 53.858 172.819 53.071 172.314 52.0597C171.808 51.0483 171.555 49.8665 171.555 48.5142C171.555 47.1562 171.808 45.9687 172.314 44.9517C172.819 43.9347 173.53 43.1449 174.444 42.5824C175.359 42.0199 176.43 41.7386 177.657 41.7386C178.885 41.7386 179.956 42.0199 180.87 42.5824C181.785 43.1449 182.495 43.9347 183.001 44.9517C183.507 45.9687 183.76 47.1562 183.76 48.5142C183.76 49.8665 183.507 51.0483 183.001 52.0597C182.495 53.071 181.785 53.858 180.87 54.4205C179.956 54.983 178.885 55.2642 177.657 55.2642ZM177.666 53.125C178.461 53.125 179.12 52.9148 179.643 52.4943C180.166 52.0739 180.552 51.5142 180.802 50.8153C181.058 50.1165 181.186 49.3466 181.186 48.5057C181.186 47.6705 181.058 46.9034 180.802 46.2045C180.552 45.5 180.166 44.9347 179.643 44.5085C179.12 44.0824 178.461 43.8693 177.666 43.8693C176.865 43.8693 176.2 44.0824 175.672 44.5085C175.149 44.9347 174.76 45.5 174.504 46.2045C174.254 46.9034 174.129 47.6705 174.129 48.5057C174.129 49.3466 174.254 50.1165 174.504 50.8153C174.76 51.5142 175.149 52.0739 175.672 52.4943C176.2 52.9148 176.865 53.125 177.666 53.125ZM196.944 55.2557C195.887 55.2557 194.944 54.9858 194.115 54.446C193.291 53.9006 192.643 53.125 192.172 52.1193C191.706 51.108 191.473 49.8949 191.473 48.4801C191.473 47.0653 191.708 45.8551 192.18 44.8494C192.657 43.8437 193.311 43.0739 194.14 42.5398C194.97 42.0057 195.91 41.7386 196.961 41.7386C197.774 41.7386 198.427 41.875 198.922 42.1477C199.422 42.4148 199.808 42.7273 200.081 43.0852C200.359 43.4432 200.575 43.7585 200.728 44.0312H200.882V37.5455H203.43V55H200.941V52.9631H200.728C200.575 53.2415 200.353 53.5597 200.064 53.9176C199.779 54.2756 199.387 54.5881 198.887 54.8551C198.387 55.1222 197.74 55.2557 196.944 55.2557ZM197.507 53.0824C198.24 53.0824 198.859 52.8892 199.365 52.5028C199.876 52.1108 200.262 51.5682 200.524 50.875C200.791 50.1818 200.924 49.375 200.924 48.4545C200.924 47.5455 200.794 46.75 200.532 46.0682C200.271 45.3864 199.887 44.8551 199.382 44.4744C198.876 44.0937 198.251 43.9034 197.507 43.9034C196.74 43.9034 196.1 44.1023 195.589 44.5C195.078 44.8977 194.691 45.4403 194.43 46.1278C194.174 46.8153 194.047 47.5909 194.047 48.4545C194.047 49.3295 194.177 50.1165 194.439 50.8153C194.7 51.5142 195.086 52.0682 195.598 52.4773C196.115 52.8807 196.751 53.0824 197.507 53.0824ZM212.125 55.2642C210.898 55.2642 209.827 54.983 208.912 54.4205C207.997 53.858 207.287 53.071 206.782 52.0597C206.276 51.0483 206.023 49.8665 206.023 48.5142C206.023 47.1562 206.276 45.9687 206.782 44.9517C207.287 43.9347 207.997 43.1449 208.912 42.5824C209.827 42.0199 210.898 41.7386 212.125 41.7386C213.353 41.7386 214.424 42.0199 215.338 42.5824C216.253 43.1449 216.963 43.9347 217.469 44.9517C217.975 45.9687 218.228 47.1562 218.228 48.5142C218.228 49.8665 217.975 51.0483 217.469 52.0597C216.963 53.071 216.253 53.858 215.338 54.4205C214.424 54.983 213.353 55.2642 212.125 55.2642ZM212.134 53.125C212.929 53.125 213.588 52.9148 214.111 52.4943C214.634 52.0739 215.02 51.5142 215.27 50.8153C215.526 50.1165 215.654 49.3466 215.654 48.5057C215.654 47.6705 215.526 46.9034 215.27 46.2045C215.02 45.5 214.634 44.9347 214.111 44.5085C213.588 44.0824 212.929 43.8693 212.134 43.8693C211.333 43.8693 210.668 44.0824 210.14 44.5085C209.617 44.9347 209.228 45.5 208.972 46.2045C208.722 46.9034 208.597 47.6705 208.597 48.5057C208.597 49.3466 208.722 50.1165 208.972 50.8153C209.228 51.5142 209.617 52.0739 210.14 52.4943C210.668 52.9148 211.333 53.125 212.134 53.125ZM223.056 55L219.203 41.9091H221.837L224.402 51.5227H224.53L227.104 41.9091H229.737L232.294 51.4801H232.422L234.97 41.9091H237.604L233.76 55H231.161L228.502 45.5483H228.306L225.647 55H223.056ZM242.115 47.2273V55H239.566V41.9091H242.012V44.0398H242.174C242.475 43.3466 242.947 42.7898 243.589 42.3693C244.237 41.9489 245.052 41.7386 246.035 41.7386C246.927 41.7386 247.708 41.9261 248.379 42.3011C249.049 42.6705 249.569 43.2216 249.938 43.9545C250.308 44.6875 250.492 45.5937 250.492 46.6733V55H247.944V46.9801C247.944 46.0312 247.697 45.2898 247.203 44.7557C246.708 44.2159 246.029 43.946 245.166 43.946C244.575 43.946 244.049 44.0739 243.589 44.3295C243.134 44.5852 242.774 44.9602 242.507 45.4545C242.245 45.9432 242.115 46.5341 242.115 47.2273ZM256.002 37.5455V55H253.454V37.5455H256.002ZM264.489 55.2642C263.262 55.2642 262.191 54.983 261.276 54.4205C260.361 53.858 259.651 53.071 259.145 52.0597C258.639 51.0483 258.387 49.8665 258.387 48.5142C258.387 47.1562 258.639 45.9687 259.145 44.9517C259.651 43.9347 260.361 43.1449 261.276 42.5824C262.191 42.0199 263.262 41.7386 264.489 41.7386C265.716 41.7386 266.787 42.0199 267.702 42.5824C268.617 43.1449 269.327 43.9347 269.833 44.9517C270.338 45.9687 270.591 47.1562 270.591 48.5142C270.591 49.8665 270.338 51.0483 269.833 52.0597C269.327 53.071 268.617 53.858 267.702 54.4205C266.787 54.983 265.716 55.2642 264.489 55.2642ZM264.497 53.125C265.293 53.125 265.952 52.9148 266.475 52.4943C266.997 52.0739 267.384 51.5142 267.634 50.8153C267.889 50.1165 268.017 49.3466 268.017 48.5057C268.017 47.6705 267.889 46.9034 267.634 46.2045C267.384 45.5 266.997 44.9347 266.475 44.5085C265.952 44.0824 265.293 43.8693 264.497 43.8693C263.696 43.8693 263.031 44.0824 262.503 44.5085C261.98 44.9347 261.591 45.5 261.335 46.2045C261.085 46.9034 260.96 47.6705 260.96 48.5057C260.96 49.3466 261.085 50.1165 261.335 50.8153C261.591 51.5142 261.98 52.0739 262.503 52.4943C263.031 52.9148 263.696 53.125 264.497 53.125ZM276.789 55.2898C275.96 55.2898 275.21 55.1364 274.539 54.8295C273.869 54.517 273.338 54.0653 272.945 53.4744C272.559 52.8835 272.366 52.1591 272.366 51.3011C272.366 50.5625 272.508 49.9545 272.792 49.4773C273.076 49 273.46 48.6222 273.943 48.3438C274.426 48.0653 274.965 47.8551 275.562 47.7131C276.159 47.571 276.766 47.4631 277.386 47.3892C278.17 47.2983 278.806 47.2244 279.295 47.1676C279.784 47.1051 280.139 47.0057 280.36 46.8693C280.582 46.733 280.693 46.5114 280.693 46.2045V46.1449C280.693 45.4006 280.482 44.8239 280.062 44.4148C279.647 44.0057 279.028 43.8011 278.204 43.8011C277.346 43.8011 276.67 43.9915 276.176 44.3722C275.687 44.7472 275.349 45.1648 275.161 45.625L272.766 45.0795C273.051 44.2841 273.465 43.642 274.011 43.1534C274.562 42.6591 275.195 42.3011 275.911 42.0795C276.627 41.8523 277.38 41.7386 278.17 41.7386C278.693 41.7386 279.247 41.8011 279.832 41.9261C280.423 42.0455 280.974 42.267 281.485 42.5909C282.002 42.9148 282.426 43.3778 282.755 43.9801C283.085 44.5767 283.249 45.3523 283.249 46.3068V55H280.761V53.2102H280.659C280.494 53.5398 280.247 53.8636 279.917 54.1818C279.588 54.5 279.164 54.7642 278.647 54.9744C278.13 55.1847 277.511 55.2898 276.789 55.2898ZM277.343 53.2443C278.048 53.2443 278.65 53.1051 279.15 52.8267C279.656 52.5483 280.039 52.1847 280.301 51.7358C280.568 51.2812 280.701 50.7955 280.701 50.2784V48.5909C280.61 48.6818 280.434 48.767 280.173 48.8466C279.917 48.9205 279.624 48.9858 279.295 49.0426C278.965 49.0937 278.644 49.142 278.332 49.1875C278.019 49.2273 277.758 49.2614 277.548 49.2898C277.053 49.3523 276.602 49.4574 276.193 49.6051C275.789 49.7528 275.465 49.9659 275.221 50.2443C274.982 50.517 274.863 50.8807 274.863 51.3352C274.863 51.9659 275.096 52.4432 275.562 52.767C276.028 53.0852 276.622 53.2443 277.343 53.2443ZM291.088 55.2557C290.031 55.2557 289.088 54.9858 288.259 54.446C287.435 53.9006 286.787 53.125 286.315 52.1193C285.85 51.108 285.617 49.8949 285.617 48.4801C285.617 47.0653 285.852 45.8551 286.324 44.8494C286.801 43.8437 287.455 43.0739 288.284 42.5398C289.114 42.0057 290.054 41.7386 291.105 41.7386C291.918 41.7386 292.571 41.875 293.065 42.1477C293.565 42.4148 293.952 42.7273 294.225 43.0852C294.503 43.4432 294.719 43.7585 294.872 44.0312H295.026V37.5455H297.574V55H295.085V52.9631H294.872C294.719 53.2415 294.497 53.5597 294.207 53.9176C293.923 54.2756 293.531 54.5881 293.031 54.8551C292.531 55.1222 291.884 55.2557 291.088 55.2557ZM291.651 53.0824C292.384 53.0824 293.003 52.8892 293.509 52.5028C294.02 52.1108 294.406 51.5682 294.668 50.875C294.935 50.1818 295.068 49.375 295.068 48.4545C295.068 47.5455 294.938 46.75 294.676 46.0682C294.415 45.3864 294.031 44.8551 293.526 44.4744C293.02 44.0937 292.395 43.9034 291.651 43.9034C290.884 43.9034 290.244 44.1023 289.733 44.5C289.222 44.8977 288.835 45.4403 288.574 46.1278C288.318 46.8153 288.19 47.5909 288.19 48.4545C288.19 49.3295 288.321 50.1165 288.582 50.8153C288.844 51.5142 289.23 52.0682 289.742 52.4773C290.259 52.8807 290.895 53.0824 291.651 53.0824ZM303.968 37.5455L303.747 49.9801H301.386L301.164 37.5455H303.968ZM302.57 55.1619C302.099 55.1619 301.695 54.9972 301.36 54.6676C301.025 54.3324 300.86 53.929 300.866 53.4574C300.86 52.9915 301.025 52.5937 301.36 52.2642C301.695 51.929 302.099 51.7614 302.57 51.7614C303.031 51.7614 303.428 51.929 303.764 52.2642C304.099 52.5937 304.269 52.9915 304.275 53.4574C304.269 53.7699 304.187 54.0568 304.028 54.3182C303.874 54.5739 303.67 54.7784 303.414 54.9318C303.158 55.0852 302.877 55.1619 302.57 55.1619Z" fill="white"/>
</svg>
